<?xml version="1.0" encoding="UTF-8"?>
<svg version="1.1" xmlns="http://www.w3.org/2000/svg" width="512" height="512">
<path d="M0 0 C0.8053418 0.63929443 0.8053418 0.63929443 1.62695312 1.29150391 C14.48689143 11.56713104 25.79905865 23.62423221 34 38 C34 38.66 34 39.32 34 40 C34.66 40 35.32 40 36 40 C36.39058594 38.91525391 36.39058594 38.91525391 36.7890625 37.80859375 C48.09074998 11.5959702 77.31909379 -8.4724208 102.69482422 -19.10058594 C113.64024283 -23.37117714 125.29308294 -26.80664975 137 -28 C138.27746094 -28.13277344 139.55492187 -28.26554687 140.87109375 -28.40234375 C173.99842589 -31.34124556 209.16456229 -19.76669883 235 1 C235.50450684 1.39912598 236.00901367 1.79825195 236.52880859 2.20947266 C258.91801345 20.01613149 275.13980745 42.89695059 284.375 70 C284.69686279 70.93585938 285.01872559 71.87171875 285.3503418 72.8359375 C290.25929185 88.0003217 291.55460812 102.85342818 291.4375 118.6875 C291.43293793 120.00119568 291.43293793 120.00119568 291.42828369 121.34143066 C291.35869535 134.91703291 290.54038437 147.83411086 287 161 C286.68651611 162.23290771 286.68651611 162.23290771 286.36669922 163.49072266 C278.18373998 195.23570085 261.69831194 225.26898437 243 252 C242.50773926 252.70479492 242.01547852 253.40958984 241.50830078 254.13574219 C233.78391627 265.13619006 225.61584264 275.68606499 217 286 C216.51257324 286.58652344 216.02514648 287.17304688 215.52294922 287.77734375 C209.92628221 294.50478538 204.18851561 301.07122201 198.265625 307.515625 C196.30329091 309.66742583 194.39353464 311.85042683 192.5 314.0625 C189.07234933 318.01561599 185.3723409 321.66377333 181.625 325.3125 C179.55467072 327.43212283 177.63030161 329.57243376 175.70703125 331.8203125 C171.96276769 336.13851427 167.88735085 340.00555451 163.6875 343.875 C158.85913149 348.36588789 154.0679745 352.8673139 149.4375 357.5625 C146.15841147 360.88010131 142.79450973 364.00126588 139.25 367.03125 C136.91086515 369.077993 134.63886396 371.18452469 132.36767578 373.3059082 C126.9365861 378.3779241 121.40405332 383.21425734 115.59765625 387.859375 C113.04674692 389.96147773 110.65503139 392.17114422 108.25 394.4375 C84.50144499 415.93500714 55.83232268 423.21241922 24.36621094 422.19970703 C-1.33758856 420.67477898 -23.99212118 407.32244132 -42.52734375 390.2265625 C-44.99133203 388.00780528 -47.53093255 385.93942923 -50.125 383.875 C-56.45196943 378.75957791 -62.30363374 373.16746636 -68.20703125 367.57421875 C-71.17450166 364.76489628 -74.18824189 362.01927166 -77.25 359.3125 C-81.51744614 355.51203029 -85.55303177 351.5139743 -89.54003906 347.4230957 C-92.21397132 344.70038601 -94.96245519 342.14512072 -97.86328125 339.6640625 C-102.23511878 335.88046225 -106.14616973 331.74680625 -110.0625 327.5 C-114.44354701 322.7767497 -118.84065473 318.09612596 -123.43652344 313.58032227 C-126.45337116 310.53096947 -129.21015723 307.25569887 -132 304 C-132.8837913 302.98018849 -133.76793245 301.96068012 -134.65234375 300.94140625 C-151.38592132 281.60644911 -167.26074473 261.59789545 -181 240 C-181.36367676 239.42958984 -181.72735352 238.85917969 -182.10205078 238.27148438 C-202.16004956 206.51673239 -220.86173804 168.64758706 -221.23828125 130.3046875 C-221.24812042 129.48326263 -221.25795959 128.66183777 -221.26809692 127.81552124 C-221.59553969 93.40643959 -221.59553969 93.40643959 -217 78 C-216.64591064 76.77458496 -216.64591064 76.77458496 -216.28466797 75.52441406 C-205.61993815 39.64526502 -181.43201454 8.79812629 -149 -10 C-101.01494454 -35.92898308 -43.48408584 -35.09786929 0 0 Z " fill="#FF96AE" transform="translate(221,69)"/>
</svg>
